<svg width="678" height="529" viewBox="0 0 678 529" fill="none" xmlns="http://www.w3.org/2000/svg">
<rect width="678" height="529" fill="#E5E5E5"/>
<rect width="678" height="529" fill="white"/>
<g clip-path="url(#clip0)">
<path d="M69.8324 75.6491L259.683 114.929L436.441 75.6491L289.143 468.444L196.129 301.866L69.8324 75.6491Z" fill="#FEE716"/>
<path fill-rule="evenodd" clip-rule="evenodd" d="M63.484 70.993L259.659 111.581L441.626 71.1436L289.728 476.206L193.271 303.462L63.484 70.993ZM76.1807 80.3052L198.987 300.27L288.558 460.682L431.256 80.1545L259.708 118.276L76.1807 80.3052Z" fill="black"/>
<path d="M198.931 163.864C214.1 177.101 227.507 191.196 231.959 211.451C233.432 218.155 234.623 236.924 222.911 236.551C213.687 236.256 205.438 229.356 200.535 222.07C198.145 218.522 186.421 223.281 187.887 225.461C198.335 240.983 223.212 250.116 238.643 235.294C248.888 225.455 245.922 209.887 241.706 197.848C236.194 182.11 222.97 169.933 210.767 159.282C207.893 156.768 196.312 161.579 198.931 163.864Z" fill="black"/>
<path d="M317.13 156.742C300.403 140.257 244.842 147.871 259.147 179.314C265.615 193.527 288.122 197.743 301.202 202.319C310.138 205.448 333.26 216.538 312.92 225.612C298.819 231.896 279.821 229.657 264.678 230.312C260.443 230.495 251.101 237.225 259.592 236.859C279.245 236.001 298.884 236.479 317.732 230.103C331.067 225.592 340.161 215.255 327.041 204.695C315.244 195.196 298.393 193.056 284.914 186.705C274.97 182.018 267.186 173.658 270.943 162.077C275.441 148.238 298.046 154.313 305.333 161.501C308.239 164.362 320.121 159.688 317.13 156.742Z" fill="black"/>
<path d="M207.383 322.017L154.12 503.632L250.544 399.319" fill="black"/>
<path fill-rule="evenodd" clip-rule="evenodd" d="M204.242 321.095L210.524 322.938L161.187 491.164L248.141 397.097L252.948 401.541L147.052 516.1L204.242 321.095Z" fill="black"/>
<path d="M341.431 328.995L423.348 503.632L313.621 403.155" fill="black"/>
<path fill-rule="evenodd" clip-rule="evenodd" d="M413.361 490.048L338.467 330.385L344.394 327.605L433.335 517.216L311.41 405.569L315.831 400.741L413.361 490.048Z" fill="black"/>
<path d="M154.12 503.632L123.842 519.998H167.213L154.12 503.632Z" fill="#FAF067"/>
<path fill-rule="evenodd" clip-rule="evenodd" d="M154.968 499.453L174.023 523.272H110.902L154.968 499.453ZM136.781 516.725H160.402L153.271 507.811L136.781 516.725Z" fill="black"/>
<path d="M423.348 503.632L400.435 519.998L455.262 524.09L423.348 503.632Z" fill="#FDF383"/>
<path fill-rule="evenodd" clip-rule="evenodd" d="M423.249 499.68L467.922 528.317L391.175 522.59L423.249 499.68ZM423.447 507.584L409.694 517.407L442.603 519.863L423.447 507.584Z" fill="black"/>
<path d="M98.0744 126.248L13.3682 276.138L126.519 177.187" fill="#FEE716"/>
<path fill-rule="evenodd" clip-rule="evenodd" d="M95.2247 124.637L100.924 127.858L25.66 261.041L124.365 174.723L128.674 179.651L1.07632 291.236L95.2247 124.637Z" fill="black"/>
<path d="M417.462 126.248L534.64 276.138L400.435 179.576" fill="#FEE716"/>
<path fill-rule="evenodd" clip-rule="evenodd" d="M517.938 260.089L414.884 128.264L420.041 124.232L551.341 292.188L398.523 182.233L402.347 176.919L517.938 260.089Z" fill="black"/>
<path d="M259.683 114.929L194.217 6.09161H318.603L259.683 114.929Z" fill="#FEE716"/>
<path fill-rule="evenodd" clip-rule="evenodd" d="M188.429 2.8183H324.097L259.833 121.528L188.429 2.8183ZM200.006 9.36488L259.534 108.329L313.108 9.36488H200.006Z" fill="black"/>
<path d="M218.905 31.4596C220.973 31.381 223.618 30.4187 225.693 29.7902C227.867 29.1356 230.184 28.5005 232.306 27.8066C236.031 26.5889 239.278 25.0636 242.78 23.2305C248.233 20.3762 254.603 17.7576 259.12 13.6071C259.094 15.211 261.89 17.116 263.101 17.9867C264.855 19.2502 266.832 20.1733 268.698 21.116C272.312 22.9359 276.305 24.3696 280.043 25.6855C286.243 27.8655 292.534 29.3319 299.127 29.9539C290.197 30.7984 281.811 32.6445 273.196 34.4579C270.557 35.0078 268.083 35.8982 265.549 36.507C263.212 37.07 260.299 37.3319 258.328 38.8965C256.698 37.5348 254.518 36.998 252.6 36.5005C250.276 35.8982 247.985 35.1846 245.641 34.5889C241.346 33.4956 237.013 33.1421 232.679 32.2779C230.381 31.8197 228.063 31.3548 225.726 31.0144C223.677 30.7133 221.144 29.8753 219.062 30.6609C218.944 31.1454 219.173 31.2959 219.586 31.453" fill="black"/>
<path fill-rule="evenodd" clip-rule="evenodd" d="M262.401 13.1845L262.518 6.04028L256.906 11.1968C254.94 13.0025 252.493 14.5438 249.748 16.0236C248.382 16.7599 246.977 17.4629 245.544 18.1741C245.372 18.2595 245.199 18.3451 245.026 18.431C243.772 19.0523 242.495 19.6853 241.262 20.3304M262.401 13.1845C262.502 13.306 262.655 13.4698 262.873 13.672C263.465 14.2212 264.168 14.7251 264.795 15.1736C264.868 15.2262 264.94 15.278 265.011 15.329L265.014 15.3305C266.286 16.2472 267.69 16.9498 269.321 17.7659C269.598 17.9047 269.882 18.0468 270.173 18.1937C273.572 19.9056 277.375 21.2762 281.13 22.598C287.104 24.6985 293.134 26.1007 299.434 26.6951L299.435 33.2127C291.303 33.9817 283.624 35.6026 275.581 37.3001C275.013 37.4201 274.442 37.5406 273.87 37.6611L273.863 37.6624C272.678 37.9094 271.505 38.238 270.246 38.6038C270.087 38.65 269.926 38.697 269.763 38.7446C268.671 39.0629 267.499 39.4048 266.316 39.6893M262.273 13.0126C262.264 12.9976 262.261 12.9902 262.261 12.9903C262.262 12.9904 262.266 12.9979 262.273 13.0126ZM247.93 24.2979C246.669 24.9229 245.462 25.5215 244.298 26.1306L244.298 26.1307C241.791 27.4427 239.359 28.6289 236.763 29.6675C237.309 29.753 237.861 29.8366 238.421 29.9216C238.833 29.984 239.25 30.0472 239.673 30.1124C241.851 30.4479 244.139 30.8289 246.448 31.4168L245.641 34.5889L246.447 31.4165C246.448 31.4166 246.448 31.4167 246.448 31.4168C247.67 31.7272 248.869 32.0662 250.021 32.3933L250.176 32.4372C251.286 32.7524 252.352 33.0549 253.421 33.3319L253.422 33.3321C253.522 33.3581 253.627 33.385 253.735 33.4128C254.979 33.7317 256.722 34.1788 258.403 35.0524C257.686 35.382 256.967 35.7977 256.293 36.3331L258.328 38.8965L260.427 36.3844C259.79 35.8524 259.102 35.4155 258.403 35.0524C259.292 34.6435 260.179 34.3672 260.973 34.1595C261.703 33.9684 262.427 33.8185 263.062 33.6898C263.145 33.673 263.226 33.6566 263.305 33.6405C263.862 33.528 264.335 33.4325 264.783 33.3248L264.784 33.3244C265.804 33.0793 266.813 32.7853 267.917 32.4635C268.082 32.4152 268.25 32.3664 268.42 32.317C269.69 31.9483 271.072 31.5572 272.524 31.2544C273.116 31.1296 273.709 31.0045 274.302 30.8793C276.54 30.4065 278.783 29.9329 281.04 29.4784C280.344 29.252 279.65 29.017 278.957 28.7735L278.956 28.7731C275.236 27.4634 271.053 25.9669 267.226 24.0395L267.222 24.0376C266.981 23.9157 266.729 23.7901 266.468 23.6602C264.861 22.859 262.927 21.8951 261.19 20.6445C261.133 20.6034 261.068 20.5573 260.997 20.5064C260.4 20.0812 259.343 19.327 258.421 18.4718C258.401 18.4533 258.381 18.4346 258.36 18.4157C256.585 19.6842 254.707 20.7876 252.854 21.7862C251.382 22.5802 249.889 23.3264 248.453 24.0387C248.278 24.1256 248.104 24.212 247.93 24.2979ZM222.992 27.2061C223.144 27.1581 223.297 27.1098 223.451 27.061C223.866 26.9296 224.29 26.7952 224.745 26.6575L224.749 26.656C225.566 26.41 226.366 26.177 227.152 25.9481C228.573 25.5343 229.948 25.1341 231.288 24.6956L231.289 24.6953C234.77 23.5574 237.837 22.1232 241.262 20.3305M218.966 33.0789L218.42 34.5119C218.413 34.5091 218.404 34.5057 218.393 34.5016C218.174 34.4204 217.251 34.0784 216.567 33.2223C215.607 32.0201 215.688 30.6817 215.881 29.8873L216.29 28.2084L217.906 27.5984C219.695 26.9232 221.487 27.0104 222.827 27.184C222.882 27.1911 222.937 27.1985 222.992 27.2061M218.966 33.0789L219.029 34.7306C220.456 34.6764 221.932 34.3311 223.176 33.984C223.252 33.9628 223.329 33.9411 223.407 33.9189C223.434 33.9241 223.461 33.9294 223.488 33.9347C223.545 33.9458 223.604 33.9573 223.663 33.9689C224.148 34.0637 224.71 34.1736 225.25 34.253L225.254 34.2536C227.459 34.5747 229.658 35.0133 231.937 35.4678L232.039 35.488L232.039 35.488C233.882 35.8556 235.736 36.1364 237.499 36.4034C237.896 36.4635 238.289 36.523 238.676 36.5826C240.822 36.9132 242.848 37.2556 244.833 37.761L244.835 37.7613C245.957 38.0465 247.075 38.3621 248.234 38.6912L248.41 38.7411C249.502 39.0511 250.634 39.3725 251.778 39.6689M262.63 40.4929C261.53 40.7806 260.824 41.0947 260.364 41.46L258.276 43.1178L256.23 41.4087C255.272 40.6088 253.883 40.2149 251.779 39.6691M262.63 40.4929C263.166 40.3525 263.732 40.2337 264.362 40.106L262.63 40.4929ZM264.362 40.106C264.438 40.0906 264.515 40.0751 264.593 40.0592L264.362 40.106ZM264.593 40.0592C265.137 39.9497 265.74 39.828 266.314 39.6897L264.593 40.0592Z" fill="black"/>
</g>
<mask id="path-21-inside-1" fill="white">
<path fill-rule="evenodd" clip-rule="evenodd" d="M640.266 231.042L674.493 254.603C676.593 256.048 676.612 258.425 674.535 259.91L640.684 284.116C638.607 285.601 635.22 285.634 633.12 284.188C631.019 282.742 631.001 280.366 633.078 278.88L657.848 261.167L1.18351 267.389L1.12444 259.883L657.789 253.662L632.744 236.421C630.643 234.975 630.625 232.599 632.702 231.113C634.779 229.628 638.166 229.596 640.266 231.042Z"/>
</mask>
<path fill-rule="evenodd" clip-rule="evenodd" d="M640.266 231.042L674.493 254.603C676.593 256.048 676.612 258.425 674.535 259.91L640.684 284.116C638.607 285.601 635.22 285.634 633.12 284.188C631.019 282.742 631.001 280.366 633.078 278.88L657.848 261.167L1.18351 267.389L1.12444 259.883L657.789 253.662L632.744 236.421C630.643 234.975 630.625 232.599 632.702 231.113C634.779 229.628 638.166 229.596 640.266 231.042Z" fill="#E41717"/>
<path d="M674.493 254.603L686.987 236.474L686.987 236.474L674.493 254.603ZM640.266 231.042L627.772 249.17L627.772 249.17L640.266 231.042ZM674.535 259.91L687.312 277.799L687.312 277.799L674.535 259.91ZM640.684 284.116L627.907 266.227L627.906 266.227L640.684 284.116ZM633.12 284.188L620.626 302.316L620.626 302.316L633.12 284.188ZM633.078 278.88L620.301 260.991L620.3 260.992L633.078 278.88ZM657.848 261.167L670.626 279.056L727.33 238.508L657.675 239.168L657.848 261.167ZM1.18351 267.389L-20.8155 267.598L-20.6424 289.597L1.35666 289.389L1.18351 267.389ZM1.12444 259.883L0.951292 237.884L-21.0477 238.093L-20.8746 260.092L1.12444 259.883ZM657.789 253.662L657.962 275.661L727.617 275.001L670.283 235.533L657.789 253.662ZM632.744 236.421L620.25 254.549L620.25 254.549L632.744 236.421ZM632.702 231.113L619.925 213.224L619.924 213.224L632.702 231.113ZM686.987 236.474L652.76 212.913L627.772 249.17L661.999 272.731L686.987 236.474ZM687.312 277.799C692.937 273.776 698.154 266.573 698.079 257.033C698.004 247.493 692.674 240.39 686.987 236.474L661.999 272.731C658.412 270.261 654.141 265.069 654.081 257.45C654.021 249.831 658.209 244.558 661.757 242.021L687.312 277.799ZM653.461 302.005L687.312 277.799L661.757 242.021L627.907 266.227L653.461 302.005ZM620.626 302.316C626.092 306.079 632.116 307.298 637.084 307.25C642.051 307.203 648.055 305.871 653.461 302.005L627.906 266.227C631.235 263.847 634.507 263.273 636.737 263.252C638.967 263.231 642.248 263.743 645.613 266.059L620.626 302.316ZM620.3 260.992C614.675 265.014 609.458 272.217 609.533 281.757C609.608 291.297 614.938 298.401 620.626 302.316L645.614 266.06C649.201 268.529 653.471 273.721 653.531 281.34C653.591 288.96 649.403 294.232 645.855 296.769L620.3 260.992ZM645.071 243.279L620.301 260.991L645.855 296.769L670.626 279.056L645.071 243.279ZM1.35666 289.389L658.021 283.167L657.675 239.168L1.01037 245.39L1.35666 289.389ZM-20.8746 260.092L-20.8155 267.598L23.1825 267.181L23.1234 259.675L-20.8746 260.092ZM657.616 231.662L0.951292 237.884L1.29758 281.883L657.962 275.661L657.616 231.662ZM620.25 254.549L645.295 271.79L670.283 235.533L645.237 218.292L620.25 254.549ZM619.924 213.224C614.299 217.247 609.082 224.45 609.157 233.99C609.232 243.53 614.562 250.633 620.25 254.549L645.238 218.292C648.825 220.762 653.095 225.954 653.155 233.573C653.215 241.192 649.027 246.465 645.479 249.002L619.924 213.224ZM652.76 212.913C647.294 209.151 641.27 207.932 636.302 207.979C631.335 208.026 625.331 209.359 619.925 213.224L645.479 249.002C642.15 251.382 638.878 251.956 636.648 251.977C634.419 251.999 631.138 251.487 627.772 249.17L652.76 212.913Z" fill="#C9F0EE" mask="url(#path-21-inside-1)"/>
<defs>
<clipPath id="clip0">
<rect width="551.006" height="527" fill="white" transform="translate(0 2)"/>
</clipPath>
</defs>
</svg>
