<?xml version="1.0" encoding="utf-8"?>
<!-- Generator: Adobe Illustrator 15.0.0, SVG Export Plug-In . SVG Version: 6.00 Build 0)  -->
<!DOCTYPE svg PUBLIC "-//W3C//DTD SVG 1.1//EN" "http://www.w3.org/Graphics/SVG/1.1/DTD/svg11.dtd">
<svg version="1.1" id="katman_1" xmlns="http://www.w3.org/2000/svg" xmlns:xlink="http://www.w3.org/1999/xlink" x="0px" y="0px"
	 width="7.225px" height="7.646px" viewBox="28.728 0 7.225 7.646" enable-background="new 28.728 0 7.225 7.646"
	 xml:space="preserve">
<polygon fill="#F04D23" stroke="#DFD820" stroke-miterlimit="10" points="29.736,0.521 35.267,0.521 35.267,4.146 30.83,4.146 
	29.736,4.146 "/>
<line fill="none" stroke="#6ECDE0" stroke-miterlimit="10" x1="29.205" y1="7.427" x2="30.83" y2="4.146"/>
<line fill="none" stroke="#3ABFEF" stroke-miterlimit="10" x1="33.767" y1="4.146" x2="35.267" y2="7.427"/>
<path fill="none" stroke="#000000" stroke-miterlimit="10" d="M31.392,0.88c-0.246-0.046-0.211,0.423,0.047,0.392
	c0.1-0.013,0.152-0.121,0.109-0.22c-0.053-0.119-0.188-0.093-0.297-0.094"/>
<path fill="none" stroke="#000000" stroke-miterlimit="10" d="M33.595,0.974c-0.289-0.033-0.283,0.48,0.094,0.406
	c0.43-0.085-0.074-0.576-0.234-0.344"/>
<path fill="none" stroke="#000000" stroke-miterlimit="10" d="M31.126,3.599c0.092-0.149,0.238-0.309,0.27-0.483
	c0.172,0.133,0.32,0.314,0.477,0.45c0.033-0.152,0.139-0.275,0.18-0.419c0.184,0.144,0.283,0.349,0.494,0.478
	c0.006-0.151,0.119-0.384,0.205-0.497c0.188,0.191,0.291,0.476,0.545,0.595c0.021-0.154,0.027-0.447,0.123-0.561
	c0.17,0.194,0.361,0.329,0.568,0.483"/>
<polygon fill="#04BBDF" stroke="#4255A5" stroke-miterlimit="10" points="29.917,0.521 35.448,0.521 35.448,4.146 31.009,4.146 
	29.917,4.146 "/>
<line fill="none" stroke="#FBB040" stroke-miterlimit="10" x1="29.384" y1="7.427" x2="31.009" y2="4.146"/>
<line fill="none" stroke="#FBB040" stroke-miterlimit="10" x1="33.948" y1="4.146" x2="35.448" y2="7.427"/>
<path fill="none" stroke="#000000" stroke-miterlimit="10" d="M31.573,0.88c-0.248-0.046-0.212,0.422,0.047,0.392
	c0.101-0.013,0.151-0.121,0.108-0.22c-0.053-0.12-0.188-0.093-0.297-0.094"/>
<path fill="none" stroke="#000000" stroke-miterlimit="10" d="M33.775,0.974c-0.289-0.033-0.283,0.48,0.095,0.406
	c0.429-0.085-0.074-0.576-0.233-0.345"/>
<path fill="none" stroke="#ED1C24" stroke-miterlimit="10" d="M31.306,3.599c0.092-0.149,0.237-0.31,0.27-0.483
	c0.173,0.132,0.32,0.314,0.479,0.45c0.031-0.152,0.137-0.275,0.178-0.419c0.184,0.144,0.285,0.349,0.494,0.478
	c0.006-0.151,0.119-0.384,0.207-0.497c0.186,0.191,0.289,0.476,0.543,0.595c0.022-0.154,0.027-0.447,0.125-0.561
	c0.168,0.194,0.359,0.329,0.566,0.483"/>
<polygon fill="#BCBEC0" stroke="#EF447D" stroke-miterlimit="10" points="29.885,0.521 35.416,0.521 35.416,4.146 30.979,4.146 
	29.885,4.146 "/>
<line fill="none" stroke="#808285" stroke-miterlimit="10" x1="29.354" y1="7.427" x2="30.979" y2="4.146"/>
<line fill="none" stroke="#939598" stroke-miterlimit="10" x1="33.916" y1="4.146" x2="35.416" y2="7.427"/>
<path fill="none" stroke="#000000" stroke-miterlimit="10" d="M31.541,0.88c-0.248-0.046-0.211,0.422,0.047,0.392
	c0.101-0.013,0.152-0.121,0.109-0.22c-0.053-0.12-0.188-0.093-0.297-0.094"/>
<path fill="none" stroke="#000000" stroke-miterlimit="10" d="M33.744,0.974c-0.289-0.033-0.283,0.48,0.094,0.406
	c0.43-0.085-0.073-0.576-0.233-0.345"/>
<path fill="none" stroke="#000000" stroke-miterlimit="10" d="M31.275,3.599c0.092-0.149,0.237-0.31,0.27-0.483
	c0.172,0.132,0.32,0.314,0.478,0.45c0.032-0.152,0.138-0.275,0.179-0.419c0.184,0.144,0.284,0.349,0.494,0.478
	c0.006-0.151,0.119-0.384,0.206-0.497c0.187,0.191,0.29,0.476,0.544,0.595c0.021-0.154,0.027-0.447,0.124-0.561
	c0.169,0.194,0.36,0.329,0.567,0.483"/>
<polygon fill="#9E1F63" stroke="#2BB673" stroke-miterlimit="10" points="29.886,0.521 35.417,0.521 35.417,4.146 30.979,4.146 
	29.886,4.146 "/>
<line fill="none" stroke="#39B54A" stroke-miterlimit="10" x1="29.354" y1="7.427" x2="30.979" y2="4.146"/>
<line fill="none" stroke="#39B54A" stroke-miterlimit="10" x1="33.917" y1="4.146" x2="35.417" y2="7.427"/>
<path fill="none" stroke="#000000" stroke-miterlimit="10" d="M31.542,0.88c-0.248-0.046-0.213,0.422,0.047,0.392
	c0.1-0.013,0.152-0.121,0.109-0.22c-0.054-0.12-0.189-0.093-0.298-0.094"/>
<path fill="none" stroke="#000000" stroke-miterlimit="10" d="M33.746,0.974c-0.291-0.033-0.285,0.48,0.094,0.406
	c0.429-0.085-0.074-0.576-0.234-0.345"/>
<path fill="none" stroke="#000000" stroke-miterlimit="10" d="M31.276,3.599c0.091-0.149,0.237-0.31,0.269-0.483
	c0.174,0.132,0.322,0.314,0.479,0.45c0.032-0.152,0.139-0.275,0.178-0.419c0.184,0.144,0.285,0.349,0.495,0.478
	c0.005-0.151,0.119-0.384,0.206-0.497c0.186,0.191,0.29,0.476,0.544,0.595c0.022-0.154,0.027-0.447,0.124-0.561
	c0.169,0.194,0.36,0.329,0.567,0.483"/>
<polygon fill="#7FD2EA" stroke="#58595B" stroke-miterlimit="10" points="39.052,0.521 44.583,0.521 44.583,4.146 40.146,4.146 
	39.052,4.146 "/>
<line fill="none" stroke="#662D91" stroke-miterlimit="10" x1="38.521" y1="7.427" x2="40.146" y2="4.146"/>
<line fill="none" stroke="#662D91" stroke-miterlimit="10" x1="43.083" y1="4.146" x2="44.583" y2="7.427"/>
<path fill="none" stroke="#000000" stroke-miterlimit="10" d="M40.708,0.88c-0.248-0.046-0.213,0.422,0.047,0.392
	c0.1-0.013,0.152-0.121,0.108-0.22c-0.053-0.12-0.188-0.093-0.297-0.094"/>
<path fill="none" stroke="#000000" stroke-miterlimit="10" d="M42.912,0.974c-0.289-0.033-0.283,0.48,0.094,0.406
	c0.43-0.085-0.073-0.576-0.233-0.345"/>
<path fill="#146031" stroke="#ED1C24" stroke-miterlimit="10" d="M40.443,3.599c0.092-0.149,0.237-0.31,0.27-0.483
	c0.172,0.132,0.32,0.314,0.478,0.45c0.032-0.152,0.138-0.275,0.179-0.419c0.184,0.144,0.284,0.349,0.494,0.478
	c0.006-0.151,0.119-0.384,0.206-0.497c0.187,0.191,0.29,0.476,0.544,0.595c0.021-0.154,0.027-0.447,0.124-0.561
	c0.169,0.194,0.36,0.329,0.567,0.483"/>
<polygon fill="#44ABE0" stroke="#EC008C" stroke-miterlimit="10" points="48.427,0.693 53.958,0.693 53.958,4.318 49.521,4.318 
	48.427,4.318 "/>
<line fill="none" stroke="#D7DF23" stroke-miterlimit="10" x1="47.896" y1="7.599" x2="49.521" y2="4.318"/>
<line fill="none" stroke="#D7DF23" stroke-miterlimit="10" x1="52.458" y1="4.318" x2="53.958" y2="7.599"/>
<path fill="none" stroke="#000000" stroke-miterlimit="10" d="M50.083,1.052c-0.248-0.046-0.213,0.423,0.047,0.392
	c0.1-0.012,0.152-0.121,0.108-0.219c-0.053-0.121-0.188-0.094-0.297-0.095"/>
<path fill="none" stroke="#000000" stroke-miterlimit="10" d="M52.287,1.146c-0.289-0.033-0.283,0.48,0.094,0.406
	c0.43-0.085-0.073-0.576-0.233-0.345"/>
<path fill="none" stroke="#000000" stroke-miterlimit="10" d="M49.818,3.771c0.092-0.149,0.237-0.31,0.27-0.483
	c0.172,0.132,0.32,0.314,0.478,0.45c0.032-0.152,0.138-0.275,0.179-0.419c0.184,0.144,0.284,0.349,0.494,0.478
	c0.006-0.151,0.119-0.384,0.206-0.497c0.187,0.191,0.29,0.476,0.544,0.595c0.021-0.154,0.027-0.447,0.124-0.561
	c0.169,0.194,0.36,0.329,0.567,0.483"/>
<polygon fill="#BF1F40" stroke="#DFD820" stroke-miterlimit="10" points="57.927,0.693 63.458,0.693 63.458,4.318 59.021,4.318 
	57.927,4.318 "/>
<line fill="none" stroke="#F7941E" stroke-miterlimit="10" x1="57.396" y1="7.599" x2="59.021" y2="4.318"/>
<line fill="none" stroke="#F7941E" stroke-miterlimit="10" x1="61.958" y1="4.318" x2="63.458" y2="7.599"/>
<path fill="none" stroke="#000000" stroke-miterlimit="10" d="M59.583,1.052c-0.248-0.046-0.213,0.423,0.047,0.392
	c0.1-0.012,0.152-0.121,0.108-0.219c-0.053-0.121-0.188-0.094-0.297-0.095"/>
<path fill="none" stroke="#000000" stroke-miterlimit="10" d="M61.787,1.146c-0.289-0.033-0.283,0.48,0.094,0.406
	c0.43-0.085-0.073-0.576-0.233-0.345"/>
<path fill="none" stroke="#000000" stroke-miterlimit="10" d="M59.263,3.771c0.091-0.149,0.236-0.31,0.27-0.483
	c0.172,0.132,0.32,0.314,0.477,0.45c0.033-0.152,0.139-0.275,0.179-0.419c0.185,0.144,0.285,0.349,0.495,0.478
	c0.005-0.151,0.119-0.384,0.206-0.497c0.187,0.191,0.29,0.476,0.544,0.595c0.021-0.154,0.027-0.447,0.124-0.561
	c0.169,0.194,0.36,0.329,0.567,0.483"/>
</svg>
