<?xml version="1.0" encoding="utf-8"?>
<!-- Generator: Adobe Illustrator 15.0.0, SVG Export Plug-In . SVG Version: 6.00 Build 0)  -->
<!DOCTYPE svg PUBLIC "-//W3C//DTD SVG 1.1//EN" "http://www.w3.org/Graphics/SVG/1.1/DTD/svg11.dtd">
<svg version="1.1" id="katman_1" xmlns="http://www.w3.org/2000/svg" xmlns:xlink="http://www.w3.org/1999/xlink" x="0px" y="0px"
	 width="7.042px" height="7.646px" viewBox="0 0 7.042 7.646" enable-background="new 0 0 7.042 7.646" xml:space="preserve">
<polygon fill="#F04D23" stroke="#DFD820" stroke-miterlimit="10" points="1.008,0.521 6.539,0.521 6.539,4.146 2.102,4.146 
	1.008,4.146 "/>
<line fill="#FFFFFF" stroke="#6ECDE0" stroke-miterlimit="10" x1="0.477" y1="7.427" x2="2.102" y2="4.146"/>
<line fill="#FFFFFF" stroke="#3ABFEF" stroke-miterlimit="10" x1="5.039" y1="4.146" x2="6.539" y2="7.427"/>
<path fill="none" stroke="#000000" stroke-miterlimit="10" d="M2.664,0.88C2.417,0.834,2.452,1.303,2.711,1.271
	c0.1-0.012,0.152-0.121,0.109-0.219C2.768,0.932,2.632,0.959,2.523,0.958"/>
<path fill="none" stroke="#000000" stroke-miterlimit="10" d="M4.867,0.974c-0.29-0.033-0.284,0.481,0.094,0.407
	C5.39,1.296,4.887,0.804,4.727,1.037"/>
<path fill="none" stroke="#000000" stroke-miterlimit="10" d="M2.398,3.599C2.49,3.45,2.636,3.291,2.667,3.116
	C2.84,3.249,2.988,3.43,3.145,3.566c0.032-0.152,0.138-0.275,0.178-0.419c0.184,0.144,0.285,0.349,0.495,0.478
	c0.005-0.152,0.119-0.384,0.206-0.497c0.186,0.191,0.29,0.475,0.544,0.594c0.022-0.154,0.027-0.447,0.124-0.56
	c0.169,0.194,0.36,0.329,0.567,0.483"/>
<polygon fill="#04BBDF" stroke="#4255A5" stroke-miterlimit="10" points="11.188,0.521 16.719,0.521 16.719,4.146 12.281,4.146 
	11.188,4.146 "/>
<line fill="#FFFFFF" stroke="#FBB040" stroke-miterlimit="10" x1="10.656" y1="7.427" x2="12.281" y2="4.146"/>
<line fill="#FFFFFF" stroke="#FBB040" stroke-miterlimit="10" x1="15.219" y1="4.146" x2="16.719" y2="7.427"/>
<path fill="none" stroke="#000000" stroke-miterlimit="10" d="M12.844,0.88c-0.248-0.046-0.212,0.422,0.047,0.391
	c0.1-0.012,0.152-0.121,0.109-0.219c-0.053-0.121-0.188-0.093-0.297-0.094"/>
<path fill="none" stroke="#000000" stroke-miterlimit="10" d="M15.047,0.974c-0.29-0.033-0.284,0.481,0.094,0.407
	c0.429-0.085-0.074-0.577-0.234-0.345"/>
<path fill="none" stroke="#ED1C24" stroke-miterlimit="10" d="M12.578,3.599c0.091-0.149,0.237-0.309,0.269-0.483
	c0.173,0.132,0.321,0.314,0.478,0.45c0.032-0.152,0.138-0.275,0.178-0.419c0.184,0.144,0.285,0.349,0.495,0.478
	c0.005-0.152,0.119-0.384,0.206-0.497c0.186,0.191,0.29,0.475,0.544,0.594c0.022-0.154,0.027-0.447,0.124-0.56
	c0.169,0.194,0.36,0.329,0.567,0.483"/>
<polygon fill="#BCBEC0" stroke="#EF447D" stroke-miterlimit="10" points="20.094,0.521 25.625,0.521 25.625,4.146 21.188,4.146 
	20.094,4.146 "/>
<line fill="#2E3192" stroke="#808285" stroke-miterlimit="10" x1="19.563" y1="7.427" x2="21.188" y2="4.146"/>
<line fill="#FFFFFF" stroke="#939598" stroke-miterlimit="10" x1="24.125" y1="4.146" x2="25.625" y2="7.427"/>
<path fill="none" stroke="#000000" stroke-miterlimit="10" d="M21.75,0.88c-0.248-0.046-0.212,0.422,0.047,0.391
	c0.1-0.012,0.152-0.121,0.109-0.219c-0.053-0.121-0.188-0.093-0.297-0.094"/>
<path fill="none" stroke="#000000" stroke-miterlimit="10" d="M23.953,0.974c-0.29-0.033-0.284,0.481,0.094,0.407
	c0.429-0.085-0.074-0.577-0.234-0.345"/>
<path fill="none" stroke="#000000" stroke-miterlimit="10" d="M21.484,3.599c0.091-0.149,0.237-0.309,0.269-0.483
	c0.173,0.132,0.321,0.314,0.478,0.45c0.032-0.152,0.138-0.275,0.178-0.419c0.184,0.144,0.285,0.349,0.495,0.478
	c0.005-0.152,0.119-0.384,0.206-0.497c0.186,0.191,0.29,0.475,0.544,0.594c0.022-0.154,0.027-0.447,0.124-0.56
	c0.169,0.194,0.36,0.329,0.567,0.483"/>
<polygon fill="#9E1F63" stroke="#2BB673" stroke-miterlimit="10" points="29.886,0.521 35.417,0.521 35.417,4.146 30.979,4.146 
	29.886,4.146 "/>
<line fill="#FFFFFF" stroke="#39B54A" stroke-miterlimit="10" x1="29.354" y1="7.427" x2="30.979" y2="4.146"/>
<line fill="#FFFFFF" stroke="#39B54A" stroke-miterlimit="10" x1="33.917" y1="4.146" x2="35.417" y2="7.427"/>
<path fill="none" stroke="#000000" stroke-miterlimit="10" d="M31.542,0.88c-0.248-0.046-0.212,0.422,0.047,0.391
	c0.1-0.012,0.152-0.121,0.109-0.219c-0.053-0.121-0.188-0.093-0.297-0.094"/>
<path fill="none" stroke="#000000" stroke-miterlimit="10" d="M33.745,0.974c-0.29-0.033-0.284,0.481,0.094,0.407
	c0.429-0.085-0.074-0.577-0.234-0.345"/>
<path fill="none" stroke="#000000" stroke-miterlimit="10" d="M31.276,3.599c0.091-0.149,0.237-0.309,0.269-0.483
	c0.173,0.132,0.321,0.314,0.478,0.45c0.032-0.152,0.138-0.275,0.178-0.419c0.184,0.144,0.285,0.349,0.495,0.478
	c0.005-0.152,0.119-0.384,0.206-0.497c0.186,0.191,0.29,0.475,0.544,0.594c0.022-0.154,0.027-0.447,0.124-0.56
	c0.169,0.194,0.36,0.329,0.567,0.483"/>
<polygon fill="#7FD2EA" stroke="#58595B" stroke-miterlimit="10" points="39.052,0.521 44.583,0.521 44.583,4.146 40.146,4.146 
	39.052,4.146 "/>
<line fill="#FFFFFF" stroke="#662D91" stroke-miterlimit="10" x1="38.521" y1="7.427" x2="40.146" y2="4.146"/>
<line fill="#FFFFFF" stroke="#662D91" stroke-miterlimit="10" x1="43.083" y1="4.146" x2="44.583" y2="7.427"/>
<path fill="none" stroke="#000000" stroke-miterlimit="10" d="M40.708,0.88c-0.248-0.046-0.212,0.422,0.047,0.391
	c0.1-0.012,0.152-0.121,0.109-0.219c-0.053-0.121-0.188-0.093-0.297-0.094"/>
<path fill="none" stroke="#000000" stroke-miterlimit="10" d="M42.912,0.974c-0.29-0.033-0.284,0.481,0.094,0.407
	c0.429-0.085-0.074-0.577-0.234-0.345"/>
<path fill="#146031" stroke="#ED1C24" stroke-miterlimit="10" d="M40.443,3.599c0.091-0.149,0.237-0.309,0.269-0.483
	c0.173,0.132,0.321,0.314,0.478,0.45c0.032-0.152,0.138-0.275,0.178-0.419c0.184,0.144,0.285,0.349,0.495,0.478
	c0.005-0.152,0.119-0.384,0.206-0.497c0.186,0.191,0.29,0.475,0.544,0.594c0.022-0.154,0.027-0.447,0.124-0.56
	c0.169,0.194,0.36,0.329,0.567,0.483"/>
<polygon fill="#44ABE0" stroke="#EC008C" stroke-miterlimit="10" points="48.427,0.693 53.958,0.693 53.958,4.318 49.521,4.318 
	48.427,4.318 "/>
<line fill="#FFFFFF" stroke="#D7DF23" stroke-miterlimit="10" x1="47.896" y1="7.599" x2="49.521" y2="4.318"/>
<line fill="#FFFFFF" stroke="#D7DF23" stroke-miterlimit="10" x1="52.458" y1="4.318" x2="53.958" y2="7.599"/>
<path fill="none" stroke="#000000" stroke-miterlimit="10" d="M50.083,1.052c-0.248-0.046-0.212,0.422,0.047,0.391
	c0.1-0.012,0.152-0.121,0.109-0.219c-0.053-0.121-0.188-0.093-0.297-0.094"/>
<path fill="none" stroke="#000000" stroke-miterlimit="10" d="M52.287,1.146c-0.29-0.033-0.284,0.481,0.094,0.407
	c0.429-0.085-0.074-0.577-0.234-0.345"/>
<path fill="none" stroke="#000000" stroke-miterlimit="10" d="M49.818,3.771c0.091-0.149,0.237-0.309,0.269-0.483
	c0.173,0.132,0.321,0.314,0.478,0.45c0.032-0.152,0.138-0.275,0.178-0.419c0.184,0.144,0.285,0.349,0.495,0.478
	c0.005-0.152,0.119-0.384,0.206-0.497c0.186,0.191,0.29,0.475,0.544,0.594c0.022-0.154,0.027-0.447,0.124-0.56
	c0.169,0.194,0.36,0.329,0.567,0.483"/>
<polygon fill="#BF1F40" stroke="#DFD820" stroke-miterlimit="10" points="57.927,0.693 63.458,0.693 63.458,4.318 59.021,4.318 
	57.927,4.318 "/>
<line fill="#FFFFFF" stroke="#F7941E" stroke-miterlimit="10" x1="57.396" y1="7.599" x2="59.021" y2="4.318"/>
<line fill="#F9AC7F" stroke="#F7941E" stroke-miterlimit="10" x1="61.958" y1="4.318" x2="63.458" y2="7.599"/>
<path fill="none" stroke="#000000" stroke-miterlimit="10" d="M59.583,1.052c-0.248-0.046-0.212,0.422,0.047,0.391
	c0.1-0.012,0.152-0.121,0.109-0.219c-0.053-0.121-0.188-0.093-0.297-0.094"/>
<path fill="none" stroke="#000000" stroke-miterlimit="10" d="M61.787,1.146c-0.29-0.033-0.284,0.481,0.094,0.407
	c0.429-0.085-0.074-0.577-0.234-0.345"/>
<path fill="none" stroke="#000000" stroke-miterlimit="10" d="M59.263,3.771c0.091-0.149,0.237-0.309,0.269-0.483
	c0.173,0.132,0.321,0.314,0.478,0.45c0.032-0.152,0.138-0.275,0.178-0.419c0.184,0.144,0.285,0.349,0.495,0.478
	c0.005-0.152,0.119-0.384,0.206-0.497c0.186,0.191,0.29,0.475,0.544,0.594c0.022-0.154,0.027-0.447,0.124-0.56
	c0.169,0.194,0.36,0.329,0.567,0.483"/>
</svg>
