<?xml version="1.0" encoding="utf-8"?>
<!-- Generator: Adobe Illustrator 15.0.0, SVG Export Plug-In . SVG Version: 6.00 Build 0)  -->
<!DOCTYPE svg PUBLIC "-//W3C//DTD SVG 1.1//EN" "http://www.w3.org/Graphics/SVG/1.1/DTD/svg11.dtd">
<svg version="1.1" id="katman_1" xmlns="http://www.w3.org/2000/svg" xmlns:xlink="http://www.w3.org/1999/xlink" x="0px" y="0px"
	 width="84.167px" height="80.5px" viewBox="0 0 84.167 80.5" enable-background="new 0 0 84.167 80.5" xml:space="preserve">
<polygon fill="#FF000D" stroke="#000000" stroke-miterlimit="10" points="10.667,11.25 39.667,17.25 66.667,11.25 44.167,71.25 
	29.959,45.805 "/>
<g>
	<g>
		<path d="M30.387,24.725c2.317,2.022,4.365,4.175,5.045,7.269c0.225,1.024,0.407,3.891-1.382,3.834
			c-1.409-0.045-2.669-1.099-3.418-2.212c-0.365-0.542-2.156,0.185-1.932,0.518c1.596,2.371,5.396,3.766,7.753,1.502
			c1.565-1.503,1.112-3.881,0.468-5.72c-0.842-2.404-2.862-4.264-4.726-5.891C31.756,23.641,29.987,24.376,30.387,24.725
			L30.387,24.725z"/>
	</g>
</g>
<g>
	<g>
		<path d="M48.442,23.637c-2.555-2.518-11.042-1.355-8.857,3.448c0.988,2.171,4.426,2.815,6.424,3.514
			c1.365,0.478,4.896,2.172,1.789,3.558c-2.153,0.96-5.055,0.618-7.368,0.718c-0.647,0.028-2.074,1.056-0.777,1
			c3.002-0.131,6.002-0.058,8.882-1.032c2.036-0.689,3.426-2.268,1.422-3.881c-1.803-1.451-4.377-1.778-6.436-2.748
			c-1.519-0.716-2.708-1.993-2.134-3.762c0.687-2.114,4.14-1.186,5.253-0.088C47.083,24.801,48.899,24.087,48.442,23.637
			L48.442,23.637z"/>
	</g>
</g>
<polyline stroke="#000000" stroke-miterlimit="10" points="31.678,48.883 23.542,76.625 38.271,60.691 "/>
<polyline stroke="#000000" stroke-miterlimit="10" points="52.154,49.949 64.667,76.625 47.906,61.277 "/>
<polygon fill="#FF000D" stroke="#000000" stroke-miterlimit="10" points="23.542,76.625 18.917,79.125 25.542,79.125 "/>
<polygon fill="#FF000D" stroke="#000000" stroke-miterlimit="10" points="64.667,76.625 61.167,79.125 69.542,79.75 "/>
<path fill="#BCD631" stroke="#000000" stroke-miterlimit="10" d="M33.108,59.125"/>
<polyline fill="#FF000D" stroke="#000000" stroke-miterlimit="10" points="14.981,18.979 2.042,41.875 19.326,26.76 "/>
<polyline fill="#FF000D" stroke="#000000" stroke-miterlimit="10" points="63.768,18.979 81.667,41.875 61.167,27.125 "/>
<polygon fill="#FF000D" stroke="#000000" stroke-miterlimit="10" points="39.667,17.25 29.667,0.625 48.667,0.625 "/>
<path stroke="#000000" stroke-miterlimit="10" d="M33.438,4.5c0.316-0.012,0.72-0.159,1.037-0.255c0.332-0.1,0.686-0.197,1.01-0.303
	c0.569-0.186,1.065-0.419,1.6-0.699c0.833-0.436,1.806-0.836,2.496-1.47c-0.004,0.245,0.423,0.536,0.608,0.669
	c0.268,0.193,0.57,0.334,0.855,0.478c0.552,0.278,1.162,0.497,1.733,0.698c0.947,0.333,1.908,0.557,2.915,0.652
	c-1.364,0.129-2.646,0.411-3.961,0.688c-0.403,0.084-0.781,0.22-1.168,0.313c-0.357,0.086-0.802,0.126-1.103,0.365
	c-0.249-0.208-0.582-0.29-0.875-0.366c-0.355-0.092-0.705-0.201-1.063-0.292c-0.656-0.167-1.318-0.221-1.98-0.353
	c-0.351-0.07-0.705-0.141-1.062-0.193c-0.313-0.046-0.7-0.174-1.018-0.054c-0.018,0.074,0.017,0.097,0.08,0.121"/>
</svg>
