<?xml version="1.0" encoding="utf-8"?>
<!-- Generator: Adobe Illustrator 15.0.0, SVG Export Plug-In . SVG Version: 6.00 Build 0)  -->
<!DOCTYPE svg PUBLIC "-//W3C//DTD SVG 1.1//EN" "http://www.w3.org/Graphics/SVG/1.1/DTD/svg11.dtd">
<svg version="1.1" id="katman_1" xmlns="http://www.w3.org/2000/svg" xmlns:xlink="http://www.w3.org/1999/xlink" x="0px" y="0px"
	 width="84.167px" height="80.5px" viewBox="0 0 84.167 80.5" enable-background="new 0 0 84.167 80.5" xml:space="preserve">
<polygon stroke="#F8EF64" stroke-miterlimit="10" points="10.667,11.25 39.667,17.25 66.667,11.25 44.167,71.25 29.959,45.805 "/>
<polyline stroke="#000000" stroke-miterlimit="10" points="31.678,48.883 23.542,76.625 38.271,60.691 "/>
<polyline stroke="#000000" stroke-miterlimit="10" points="52.154,49.949 64.667,76.625 47.906,61.277 "/>
<polygon stroke="#FEEE07" stroke-miterlimit="10" points="23.542,76.625 18.917,79.125 25.542,79.125 "/>
<polygon stroke="#FAF067" stroke-miterlimit="10" points="64.667,76.625 61.167,79.125 69.542,79.75 "/>
<path fill="#BCD631" stroke="#000000" stroke-miterlimit="10" d="M33.108,59.125"/>
<polyline stroke="#FAF067" stroke-miterlimit="10" points="14.981,18.979 2.042,41.875 19.326,26.76 "/>
<polyline stroke="#CBDB2A" stroke-miterlimit="10" points="63.768,18.979 81.667,41.875 61.167,27.125 "/>
<polygon fill="#EAE549" stroke="#000000" stroke-miterlimit="10" points="39.667,17.25 29.667,0.625 48.667,0.625 "/>
<path stroke="#000000" stroke-miterlimit="10" d="M33.438,4.5c0.316-0.012,0.72-0.159,1.037-0.255c0.332-0.1,0.686-0.197,1.01-0.303
	c0.569-0.186,1.065-0.419,1.6-0.699c0.833-0.436,1.806-0.836,2.496-1.47c-0.004,0.245,0.423,0.536,0.608,0.669
	c0.268,0.193,0.57,0.334,0.855,0.478c0.552,0.278,1.162,0.497,1.733,0.698c0.947,0.333,1.908,0.557,2.915,0.652
	c-1.364,0.129-2.646,0.411-3.961,0.688c-0.403,0.084-0.781,0.22-1.168,0.313c-0.357,0.086-0.802,0.126-1.103,0.365
	c-0.249-0.208-0.582-0.29-0.875-0.366c-0.355-0.092-0.705-0.201-1.063-0.292c-0.656-0.167-1.318-0.221-1.98-0.353
	c-0.351-0.07-0.705-0.141-1.062-0.193c-0.313-0.046-0.7-0.174-1.018-0.054c-0.018,0.074,0.017,0.097,0.08,0.121"/>
<text transform="matrix(1 0 0 1 24.5835 24.75)"><tspan x="0" y="0" fill="#FFFFFF" font-family="'MyriadPro-Regular'" font-size="12">   </tspan><tspan x="7.632" y="0" fill="#FFFFFF" font-family="'MyriadPro-Regular'" font-size="7">  </tspan><tspan x="10.6" y="0" fill="#FFFFFF" font-family="'Swiss721BT-Black'" font-size="7">JS</tspan><tspan x="0" y="8.4" fill="#FFFFFF" font-family="'Swiss721BT-Black'" font-size="7">MASTER</tspan></text>
</svg>
